<?xml version="1.0" encoding="UTF-8" standalone="no"?><!-- Generator: Gravit.io --><svg xmlns="http://www.w3.org/2000/svg" xmlns:xlink="http://www.w3.org/1999/xlink" style="isolation:isolate" viewBox="525 112.5 63 63" width="63pt" height="63pt"><g><linearGradient id="_lgradient_5" x1="0.5821978742332694" y1="0.12298075572411721" x2="0.6137566137566106" y2="2.1613756613756587" gradientTransform="matrix(63,0,0,63,525,112.5)" gradientUnits="userSpaceOnUse"><stop offset="1.7391304347826086%" stop-opacity="0.37" style="stop-color:rgb(50,50,70)"/><stop offset="100%" stop-opacity="1" style="stop-color:rgb(255,0,93)"/></linearGradient><circle vector-effect="non-scaling-stroke" cx="556.5000000000002" cy="144.00000000000009" r="31.5" fill="url(#_lgradient_5)"/><path d=" M 556.5 136.929 L 548.722 129.151 C 546.771 127.199 543.602 127.199 541.651 129.151 L 541.651 129.151 C 539.699 131.102 539.699 134.271 541.651 136.222 L 549.429 144 L 541.651 151.778 C 539.699 153.729 539.699 156.898 541.651 158.849 L 541.651 158.849 C 543.602 160.801 546.771 160.801 548.722 158.849 L 556.5 151.071 L 564.278 158.849 C 566.229 160.801 569.398 160.801 571.349 158.849 L 571.349 158.849 C 573.301 156.898 573.301 153.729 571.349 151.778 L 563.571 144 L 571.349 136.222 C 573.301 134.271 573.301 131.102 571.349 129.151 L 571.349 129.151 C 569.398 127.199 566.229 127.199 564.278 129.151 L 556.5 136.929 Z " fill-rule="evenodd" fill="rgb(255,0,72)"/></g></svg>