<?xml version="1.0" encoding="UTF-8" standalone="no"?><!-- Generator: Gravit.io --><svg xmlns="http://www.w3.org/2000/svg" xmlns:xlink="http://www.w3.org/1999/xlink" style="isolation:isolate" viewBox="917 366.015 160.884 321.984" width="160.884pt" height="321.984pt"><path d=" M 1077.661 645.563 L 1077.884 687.999 C 989.079 687.937 917 615.82 917 527 L 917 527 C 917 438.746 988.164 366.982 1076.191 366.015 L 1076.415 408.617 C 1072.295 409.558 1068.262 414.463 1065.09 423.297 L 1030.498 519.643 C 1029.558 522.261 1029.247 524.752 1029.503 527 L 1029.503 527 L 1029.503 527 L 1029.503 527 C 1029.247 529.248 1029.558 531.739 1030.498 534.357 L 1065.09 630.703 C 1068.582 640.428 1073.116 645.391 1077.661 645.563 L 1077.661 645.563 Z  M 1077.148 547.959 C 1065.967 547.509 1057.027 538.29 1057.027 527 C 1057.027 515.784 1065.851 506.612 1076.927 506.045 L 1077.148 547.959 L 1077.148 547.959 Z " fill-rule="evenodd" fill="rgb(255,255,255)"/></svg>