<?xml version="1.0" encoding="UTF-8" standalone="no"?><!-- Generator: Gravit.io --><svg xmlns="http://www.w3.org/2000/svg" xmlns:xlink="http://www.w3.org/1999/xlink" style="isolation:isolate" viewBox="1075.191 366 162.809 322" width="162.809pt" height="322pt"><path d=" M 1076.661 645.563 L 1076.884 687.999 C 1076.923 688 1076.961 688 1077 688 C 1165.858 688 1238 615.858 1238 527 C 1238 438.142 1165.858 366 1077 366 C 1076.396 366 1075.792 366.003 1075.191 366.015 L 1075.415 408.617 C 1080.569 407.359 1085.86 412.29 1089.767 423.371 L 1124.593 522.13 C 1125.261 523.574 1125.598 525.217 1125.545 527 L 1125.545 527 C 1125.598 528.784 1125.261 530.426 1124.593 531.87 L 1089.767 630.629 C 1086.175 640.818 1081.412 645.807 1076.661 645.563 L 1076.661 645.563 Z  M 1076.148 547.959 C 1076.431 547.967 1076.715 547.973 1077 547.973 C 1088.575 547.973 1097.973 538.575 1097.973 527 C 1097.973 515.425 1088.575 506.027 1077 506.027 C 1076.641 506.027 1076.284 506.036 1075.927 506.045 L 1076.148 547.959 L 1076.148 547.959 Z " fill-rule="evenodd" fill="rgb(255,255,255)"/></svg>