<?xml version="1.0" encoding="UTF-8" standalone="no"?><!-- Generator: Gravit.io --><svg xmlns="http://www.w3.org/2000/svg" xmlns:xlink="http://www.w3.org/1999/xlink" style="isolation:isolate" viewBox="561.5 12 142.5 71" width="142.5pt" height="71pt"><g><defs><linearGradient id="_lgradient_5" x1="0" y1="0.5" x2="1" y2="0.5"><stop offset="0%" style="stop-color:#FF00FF"/><stop offset="97.82608695652173%" style="stop-color:#FF9900"/></linearGradient></defs><path d="M 595.321 12 L 670.179 12 C 688.845 12 704 27.155 704 45.821 L 704 49.179 C 704 67.845 688.845 83 670.179 83 L 595.321 83 C 576.655 83 561.5 67.845 561.5 49.179 L 561.5 45.821 C 561.5 27.155 576.655 12 595.321 12 Z" style="stroke:none;fill:url(#_lgradient_5);stroke-miterlimit:10;"/><g><g><circle vector-effect="non-scaling-stroke" cx="594.5" cy="46.747222960593874" r="26.17446905434383" fill="rgb(255,255,255)"/><g><path d="M 581.97 32.92 L 607.838 32.92 C 609.598 32.92 611.026 34.349 611.026 36.108 L 611.026 36.137 C 611.026 37.896 609.598 39.325 607.838 39.325 L 581.97 39.325 C 580.211 39.325 578.782 37.896 578.782 36.137 L 578.782 36.108 C 578.782 34.349 580.211 32.92 581.97 32.92 Z" style="stroke:none;fill:#FF002F;stroke-miterlimit:10;"/><path d="M 581.893 54.205 L 606.377 54.205 C 608.093 54.205 609.487 55.599 609.487 57.316 L 609.487 57.499 C 609.487 59.215 608.093 60.609 606.377 60.609 L 581.893 60.609 C 580.176 60.609 578.782 59.215 578.782 57.499 L 578.782 57.316 C 578.782 55.599 580.176 54.205 581.893 54.205 Z" style="stroke:none;fill:#FF9900;stroke-miterlimit:10;"/><defs><linearGradient id="_lgradient_6" x1="0" y1="0.5" x2="1" y2="0.5"><stop offset="0%" style="stop-color:#FF002F"/><stop offset="99.1304347826087%" style="stop-color:#FF9900"/></linearGradient></defs><path d="M 605.524 33.798 L 580.159 54.693 C 578.647 55.938 578.332 58.057 579.456 59.421 L 579.456 59.421 C 580.58 60.785 582.719 60.882 584.231 59.636 L 609.596 38.741 C 611.108 37.496 611.423 35.377 610.299 34.013 L 610.299 34.013 C 609.175 32.649 607.035 32.552 605.524 33.798 Z" style="stroke:none;fill:url(#_lgradient_6);stroke-miterlimit:10;"/><g><g><linearGradient id="_lgradient_7" x1="0" y1="0.5" x2="1" y2="0.5" gradientTransform="matrix(13.654,0,0,13.654,600.855,50.58)" gradientUnits="userSpaceOnUse"><stop offset="0%" stop-opacity="1" style="stop-color:rgb(255,0,255)"/><stop offset="97.82608695652173%" stop-opacity="1" style="stop-color:rgb(153,0,255)"/></linearGradient><path d=" M 607.682 64.234 C 611.452 64.234 614.509 61.177 614.509 57.407 C 614.509 53.637 611.452 50.58 607.682 50.58 C 603.912 50.58 600.855 53.637 600.855 57.407 C 600.855 61.177 603.912 64.234 607.682 64.234 Z " fill-rule="evenodd" fill="url(#_lgradient_7)"/><g><path d=" M 608.995 55.955 L 605.404 53.994 C 605.217 53.994 605.065 54.145 605.065 54.332 L 605.065 60.482 C 605.065 60.669 605.217 60.82 605.404 60.82 C 605.404 60.82 607.373 59.738 608.995 58.851 L 608.995 55.955 Z " fill-rule="evenodd" fill="rgb(255,255,255)"/><path d=" M 609.724 56.353 L 611.096 57.103 C 611.706 57.431 611.096 57.711 611.096 57.711 C 611.096 57.692 605.404 60.82 605.404 60.82 C 605.393 60.82 605.382 60.82 605.371 60.819 L 609.724 56.353 Z " fill-rule="evenodd" fill="rgb(204,204,204)"/><path d=" M 605.404 53.994 L 611.096 57.103 C 611.706 57.431 611.096 57.711 611.096 57.711 C 611.096 57.705 610.523 58.016 609.741 58.443 L 605.404 53.994 Z " fill-rule="evenodd" fill="rgb(204,204,204)"/><path d=" M 609.731 56.357 L 611.096 57.103 C 611.706 57.431 611.096 57.711 611.096 57.711 C 611.096 57.705 610.523 58.016 609.741 58.443 L 608.72 57.395 L 609.731 56.357 Z " fill-rule="evenodd" fill="rgb(255,255,255)"/></g></g></g><g><linearGradient id="_lgradient_8" x1="0" y1="0.5" x2="1" y2="0.5" gradientTransform="matrix(13.724,0,0,13.724,574.491,29.261)" gradientUnits="userSpaceOnUse"><stop offset="0%" stop-opacity="1" style="stop-color:rgb(23,189,147)"/><stop offset="98.26086956521739%" stop-opacity="1" style="stop-color:rgb(74,134,232)"/></linearGradient><circle vector-effect="non-scaling-stroke" cx="581.3531850983694" cy="36.12261348468582" r="6.861998479744102" fill="url(#_lgradient_8)"/><g opacity="0.1"><path d=" M 584.175 33.221 C 583.416 33.105 582.43 33.034 581.353 33.034 C 578.952 33.034 577.006 33.384 577.006 33.816 C 577.006 33.864 577.029 33.91 577.073 33.954 L 577.073 33.955 L 580.418 38.443 L 580.418 40.973 L 582.355 42.911 C 585.626 42.432 588.146 39.646 588.212 36.258 L 585.639 33.686 C 585.467 33.5 584.934 33.337 584.175 33.221 L 584.175 33.221 Z " fill="rgb(0,0,0)"/></g><g><path d=" M 585.642 33.944 L 582.297 38.432 L 582.297 40.091 L 581.268 40.574 L 580.827 40.781 L 580.418 40.973 L 580.418 38.444 L 577.072 33.955 L 585.642 33.944 Z " fill="rgb(230,233,239)"/><g opacity="0.25"><path d=" M 578.752 34.041 L 578.124 34.041 L 580.821 38.444 L 580.827 40.781 L 581.268 40.574 L 581.268 38.444 L 578.752 34.041 Z " fill="rgb(255,255,255)"/></g><path d=" M 585.701 33.817 C 585.701 33.937 585.548 34.052 585.276 34.154 C 584.577 34.418 583.083 34.6 581.353 34.6 C 579.623 34.6 578.13 34.418 577.429 34.154 C 577.157 34.052 577.006 33.937 577.006 33.817 C 577.006 33.385 578.952 33.034 581.353 33.034 C 583.754 33.034 585.701 33.385 585.701 33.817 Z " fill="rgb(217,221,230)"/><path d=" M 577.983 34.235 C 578.375 34.335 578.775 34.373 579.178 34.384 C 579.828 34.402 580.472 34.461 581.12 34.483 C 582.491 34.529 583.896 34.44 585.226 34.083 C 584.926 33.871 583.307 33.709 581.353 33.709 C 579.325 33.709 577.658 33.883 577.451 34.107 C 577.635 34.125 577.803 34.188 577.983 34.235 Z " fill="rgb(198,203,212)"/><path d=" M 581.353 33.034 C 578.952 33.034 577.006 33.385 577.006 33.817 C 577.006 33.937 577.157 34.052 577.429 34.154 C 578.13 34.418 579.623 34.6 581.353 34.6 C 583.083 34.6 584.577 34.418 585.276 34.154 C 585.548 34.052 585.701 33.937 585.701 33.817 C 585.701 33.385 583.754 33.034 581.353 33.034 Z  M 585.21 33.977 C 584.51 34.24 582.997 34.41 581.353 34.41 C 579.709 34.41 578.196 34.24 577.496 33.977 C 577.294 33.901 577.225 33.841 577.202 33.815 C 577.364 33.595 578.833 33.224 581.353 33.224 C 583.873 33.224 585.341 33.595 585.504 33.815 C 585.482 33.841 585.412 33.901 585.21 33.977 L 585.21 33.977 Z " fill="rgb(230,233,239)"/></g></g></g></g><path d=" M 649.062 56.108 L 649.062 56.108 L 649.062 56.108 Q 649.062 60.942 645.583 63.725 L 645.583 63.725 L 645.583 63.725 Q 642.104 66.508 635.902 66.508 L 635.902 66.508 L 635.902 66.508 Q 630.189 66.508 625.795 64.36 L 625.795 64.36 L 625.795 57.329 L 625.795 57.329 Q 629.408 58.94 631.911 59.599 L 631.911 59.599 L 631.911 59.599 Q 634.413 60.258 636.488 60.258 L 636.488 60.258 L 636.488 60.258 Q 638.979 60.258 640.309 59.306 L 640.309 59.306 L 640.309 59.306 Q 641.64 58.354 641.64 56.474 L 641.64 56.474 L 641.64 56.474 Q 641.64 55.424 641.054 54.606 L 641.054 54.606 L 641.054 54.606 Q 640.468 53.789 639.333 53.032 L 639.333 53.032 L 639.333 53.032 Q 638.197 52.275 634.706 50.615 L 634.706 50.615 L 634.706 50.615 Q 631.435 49.077 629.799 47.661 L 629.799 47.661 L 629.799 47.661 Q 628.163 46.245 627.187 44.365 L 627.187 44.365 L 627.187 44.365 Q 626.21 42.485 626.21 39.97 L 626.21 39.97 L 626.21 39.97 Q 626.21 35.234 629.42 32.524 L 629.42 32.524 L 629.42 32.524 Q 632.631 29.814 638.295 29.814 L 638.295 29.814 L 638.295 29.814 Q 641.078 29.814 643.605 30.473 L 643.605 30.473 L 643.605 30.473 Q 646.132 31.132 648.891 32.329 L 648.891 32.329 L 646.449 38.212 L 646.449 38.212 Q 643.593 37.041 641.725 36.577 L 641.725 36.577 L 641.725 36.577 Q 639.857 36.113 638.051 36.113 L 638.051 36.113 L 638.051 36.113 Q 635.902 36.113 634.755 37.114 L 634.755 37.114 L 634.755 37.114 Q 633.607 38.115 633.607 39.726 L 633.607 39.726 L 633.607 39.726 Q 633.607 40.727 634.071 41.472 L 634.071 41.472 L 634.071 41.472 Q 634.535 42.216 635.548 42.912 L 635.548 42.912 L 635.548 42.912 Q 636.562 43.608 640.346 45.415 L 640.346 45.415 L 640.346 45.415 Q 645.351 47.807 647.206 50.212 L 647.206 50.212 L 647.206 50.212 Q 649.062 52.617 649.062 56.108 Z  M 663.1 36.528 L 663.1 47.124 L 665.59 47.124 L 665.59 47.124 Q 669.081 47.124 670.814 45.744 L 670.814 45.744 L 670.814 45.744 Q 672.548 44.365 672.548 41.728 L 672.548 41.728 L 672.548 41.728 Q 672.548 39.067 671.095 37.797 L 671.095 37.797 L 671.095 37.797 Q 669.643 36.528 666.542 36.528 L 666.542 36.528 L 663.1 36.528 L 663.1 36.528 Z  M 680.189 41.459 L 680.189 41.459 L 680.189 41.459 Q 680.189 47.221 676.588 50.273 L 676.588 50.273 L 676.588 50.273 Q 672.987 53.325 666.347 53.325 L 666.347 53.325 L 663.1 53.325 L 663.1 66.02 L 655.531 66.02 L 655.531 30.327 L 666.933 30.327 L 666.933 30.327 Q 673.427 30.327 676.808 33.122 L 676.808 33.122 L 676.808 33.122 Q 680.189 35.917 680.189 41.459 Z " fill="rgb(255,255,255)"/></g></g></svg>