<?xml version="1.0" encoding="UTF-8" standalone="no"?><!-- Generator: Gravit.io --><svg xmlns="http://www.w3.org/2000/svg" xmlns:xlink="http://www.w3.org/1999/xlink" style="isolation:isolate" viewBox="497 353 390.375 174" width="390.375pt" height="174pt"><path d=" M 774.704 353 C 775.509 390.296 782.277 397.041 793.43 397.041 C 808.719 397.041 820.905 375.629 849.044 375.629 L 849.044 375.629 C 874.524 375.629 887.375 397.041 887.375 420.218 C 887.375 442.954 874.303 461.938 850.152 461.937 C 823.121 461.937 816.031 437.436 791.658 437.436 C 750.62 437.436 774.154 518.832 774.154 518.832 C 739.214 518.832 651.328 542.602 651.328 501.394 C 651.328 477.113 675.922 470.049 675.922 443.119 C 675.922 419.059 656.867 406.036 634.046 406.036 C 610.782 406.036 590.958 418.838 590.958 444.223 C 590.958 472.257 618.067 484.208 618.067 499.439 C 618.067 546.683 497 518.864 497 518.864 L 497 353 L 774.704 353 L 774.704 353 Z " fill="rgb(255,255,255)"/></svg>