<?xml version="1.0" encoding="UTF-8" standalone="no"?><!-- Generator: Gravit.io --><svg xmlns="http://www.w3.org/2000/svg" xmlns:xlink="http://www.w3.org/1999/xlink" style="isolation:isolate" viewBox="329.5 275.897 49 49" width="49pt" height="49pt"><g><circle vector-effect="non-scaling-stroke" cx="353.99999999999966" cy="300.39678559936954" r="24.5" fill="rgb(255,255,255)"/><path d=" M 368.409 293.608 L 365.663 296.354 C 365.383 296.634 364.93 296.634 364.65 296.354 L 358.038 289.742 C 357.758 289.462 357.758 289.009 358.038 288.73 L 360.784 285.983 C 361.898 284.87 363.709 284.87 364.829 285.983 L 368.409 289.563 C 369.529 290.677 369.529 292.488 368.409 293.608 Z  M 355.679 291.088 L 340.037 306.731 L 338.774 313.968 C 338.601 314.945 339.453 315.791 340.43 315.624 L 347.667 314.356 L 363.31 298.713 C 363.59 298.433 363.59 297.98 363.31 297.7 L 356.698 291.088 C 356.412 290.808 355.959 290.808 355.679 291.088 L 355.679 291.088 Z  M 346.142 305.391 C 345.815 305.063 345.815 304.539 346.142 304.211 L 355.316 295.038 C 355.643 294.71 356.168 294.71 356.495 295.038 C 356.823 295.365 356.823 295.89 356.495 296.217 L 347.322 305.391 C 346.994 305.718 346.47 305.718 346.142 305.391 L 346.142 305.391 Z  M 343.992 310.4 L 346.851 310.4 L 346.851 312.563 L 343.009 313.236 L 341.156 311.383 L 341.83 307.541 L 343.992 307.541 L 343.992 310.4 Z " fill="rgb(255,153,0)"/></g></svg>