<?xml version="1.0" encoding="UTF-8" standalone="no"?><!-- Generator: Gravit.io --><svg xmlns="http://www.w3.org/2000/svg" xmlns:xlink="http://www.w3.org/1999/xlink" style="isolation:isolate" viewBox="784 272 42 41.999" width="42pt" height="41.999pt"><path d=" M 824.846 278.084 L 819.916 273.154 C 818.378 271.615 815.883 271.615 814.345 273.154 L 809.706 277.792 L 820.208 288.294 L 824.846 283.655 C 826.385 282.117 826.385 279.623 824.846 278.084 L 824.846 278.084 Z  M 804.602 276.4 C 803.32 275.119 801.243 275.119 799.962 276.4 L 790.219 286.144 C 789.706 286.657 789.706 287.488 790.219 288 L 792.075 289.856 C 792.588 290.369 793.419 290.369 793.931 289.856 L 802.284 281.504 L 804.14 283.36 L 791.708 295.791 C 787.401 300.097 784.688 305.741 784.015 311.793 L 784.012 311.812 C 783.873 313.066 784.932 314.125 786.185 313.987 C 792.246 313.318 797.897 310.604 802.209 306.292 L 818.351 290.15 L 811.562 283.36 L 804.602 276.4 L 804.602 276.4 Z " fill="rgb(255,153,0)"/></svg>