<?xml version="1.0" encoding="UTF-8" standalone="no"?><!-- Generator: Gravit.io --><svg xmlns="http://www.w3.org/2000/svg" xmlns:xlink="http://www.w3.org/1999/xlink" style="isolation:isolate" viewBox="818.5 209.073 45 45" width="45pt" height="45pt"><linearGradient id="_lgradient_8" x1="0" y1="0.5" x2="1" y2="0.5"><stop offset="0%" stop-opacity="1" style="stop-color:rgb(255,0,255)"/><stop offset="100%" stop-opacity="1" style="stop-color:rgb(255,153,0)"/></linearGradient><path d=" M 846 226.573 L 846 215.573 C 846 212.813 843.76 210.573 841 210.573 L 841 210.573 C 838.24 210.573 836 212.813 836 215.573 L 836 226.573 L 825 226.573 C 822.24 226.573 820 228.813 820 231.573 L 820 231.573 C 820 234.332 822.24 236.573 825 236.573 L 836 236.573 L 836 247.573 C 836 250.332 838.24 252.573 841 252.573 L 841 252.573 C 843.76 252.573 846 250.332 846 247.573 L 846 236.573 L 857 236.573 C 859.76 236.573 862 234.332 862 231.573 L 862 231.573 C 862 228.813 859.76 226.573 857 226.573 L 846 226.573 Z " fill-rule="evenodd" fill="rgb(255,255,255)" vector-effect="non-scaling-stroke" stroke-width="1" stroke="url(#_lgradient_8)" stroke-linejoin="miter" stroke-linecap="square" stroke-miterlimit="3"/></svg>