<?xml version="1.0" encoding="UTF-8" standalone="no"?><!-- Generator: Gravit.io --><svg xmlns="http://www.w3.org/2000/svg" xmlns:xlink="http://www.w3.org/1999/xlink" style="isolation:isolate" viewBox="121 409.939 262.001 179" width="262.001pt" height="179pt"><path d=" M 363.307 522.045 C 294.592 535.271 270.942 527.784 270.86 508.298 C 270.86 484.017 295.453 476.953 295.453 450.023 C 295.453 425.962 276.399 412.939 253.799 412.939 C 230.313 412.939 208.82 425.742 208.82 451.127 C 208.82 479.16 230.312 491.301 230.312 506.531 C 230.328 546.452 124.026 518.701 124 525.957 L 124 585.939 L 380 585.939 C 380 584.165 380 582.408 380 580.667 Q 380.001 557.224 380 585.939 L 380 535.832 C 380 526.45 372.52 520.272 363.307 522.045 Z " fill="rgb(255,255,255)" vector-effect="non-scaling-stroke" stroke-width="2" stroke="rgb(63,46,90)" stroke-linejoin="miter" stroke-linecap="square" stroke-miterlimit="3"/></svg>