<?xml version="1.0" encoding="UTF-8" standalone="no"?><!-- Generator: Gravit.io --><svg xmlns="http://www.w3.org/2000/svg" xmlns:xlink="http://www.w3.org/1999/xlink" style="isolation:isolate" viewBox="329.5 337.103 49 49" width="49pt" height="49pt"><g><circle vector-effect="non-scaling-stroke" cx="353.99999999999966" cy="361.6032144006304" r="24.5" fill="rgb(255,255,255)"/><path d=" M 342.929 373.597 C 342.929 375.126 344.168 376.365 345.696 376.365 L 362.304 376.365 C 363.832 376.365 365.071 375.126 365.071 373.597 L 365.071 354.222 L 342.929 354.222 L 342.929 373.597 Z  M 358.613 358.835 C 358.613 358.326 359.026 357.913 359.536 357.913 C 360.045 357.913 360.458 358.326 360.458 358.835 L 360.458 371.752 C 360.458 372.262 360.045 372.675 359.536 372.675 C 359.026 372.675 358.613 372.262 358.613 371.752 L 358.613 358.835 Z  M 353.077 358.835 C 353.077 358.326 353.49 357.913 354 357.913 C 354.51 357.913 354.923 358.326 354.923 358.835 L 354.923 371.752 C 354.923 372.262 354.51 372.675 354 372.675 C 353.49 372.675 353.077 372.262 353.077 371.752 L 353.077 358.835 Z  M 347.542 358.835 C 347.542 358.326 347.955 357.913 348.464 357.913 C 348.974 357.913 349.387 358.326 349.387 358.835 L 349.387 371.752 C 349.387 372.262 348.974 372.675 348.464 372.675 C 347.955 372.675 347.542 372.262 347.542 371.752 L 347.542 358.835 Z  M 365.994 348.687 L 359.074 348.687 L 358.532 347.608 C 358.298 347.138 357.818 346.841 357.293 346.841 L 350.702 346.841 C 350.177 346.839 349.698 347.137 349.468 347.608 L 348.926 348.687 L 342.006 348.687 C 341.496 348.687 341.083 349.1 341.083 349.609 L 341.083 351.454 C 341.083 351.964 341.496 352.377 342.006 352.377 L 365.994 352.377 C 366.504 352.377 366.917 351.964 366.917 351.454 L 366.917 349.609 C 366.917 349.1 366.504 348.687 365.994 348.687 Z " fill="rgb(255,0,0)"/></g></svg>