<?xml version="1.0" encoding="UTF-8" standalone="no"?><!-- Generator: Gravit.io --><svg xmlns="http://www.w3.org/2000/svg" xmlns:xlink="http://www.w3.org/1999/xlink" style="isolation:isolate" viewBox="1207.901 13.9 56.648 85.1" width="56.648pt" height="85.1pt"><path d=" M 1229 37.349 L 1229 92 C 1229 95.863 1232.137 99 1236 99 L 1236 99 C 1239.863 99 1243 95.863 1243 92 L 1243 36.899 L 1252.601 46.5 C 1255.332 49.232 1259.768 49.232 1262.5 46.5 L 1262.5 46.5 C 1265.232 43.768 1265.232 39.332 1262.5 36.601 L 1241.849 15.95 C 1240.335 14.436 1238.298 13.761 1236.32 13.941 C 1234.281 13.719 1232.162 14.388 1230.601 15.95 L 1209.95 36.601 C 1207.218 39.332 1207.218 43.768 1209.95 46.5 L 1209.95 46.5 C 1212.682 49.232 1217.117 49.232 1219.849 46.5 L 1229 37.349 Z " fill-rule="evenodd" fill="rgb(235,235,235)"/></svg>